<svg xmlns="http://www.w3.org/2000/svg" width="16" height="16"><path d="M8 0C3.588 0 0 3.588 0 8s3.588 8 8 8 8-3.588 8-8-3.588-8-8-8zm0 1c3.872 0 7 3.128 7 7s-3.128 7-7 7-7-3.128-7-7 3.128-7 7-7zM5 5c-.823 0-1.5.678-1.5 1.5S4.177 8 5 8s1.5-.678 1.5-1.5S5.823 5 5 5zm6 0c-.823 0-1.5.678-1.5 1.5S10.177 8 11 8s1.5-.678 1.5-1.5S11.823 5 11 5zM5 6c.282 0 .5.218.5.5 0 .282-.218.5-.5.5a.493.493 0 0 1-.5-.5c0-.282.218-.5.5-.5zm6 0c.282 0 .5.218.5.5 0 .282-.218.5-.5.5a.493.493 0 0 1-.5-.5c0-.282.218-.5.5-.5zm-3.03 4.305a5.999 5.999 0 0 0-4.304 1.85l.723.69a5 5 0 0 1 7.19-.035l.714-.697a5.991 5.991 0 0 0-4.322-1.808z" color="#000" font-family="sans-serif" font-weight="400" overflow="visible" style="line-height:normal;text-indent:0;text-align:start;text-decoration-line:none;text-decoration-style:solid;text-decoration-color:#000;text-transform:none;block-progression:tb;white-space:normal;isolation:auto;mix-blend-mode:normal;solid-color:#000;solid-opacity:1"/></svg>