<svg xmlns="http://www.w3.org/2000/svg" width="256" height="256" enable-background="new 0 0 256 256" viewBox="0 0 256 256"><linearGradient id="a" x1="127.999" x2="127.999" y1="67.564" y2="224.484" gradientUnits="userSpaceOnUse"><stop offset="0" stop-color="#5ae050"/><stop offset="1" stop-color="#40d437"/></linearGradient><path fill="url(#a)" fill-rule="evenodd" d="M27.364,99.627c3.874-4.29,10.742-4.86,15.268-1.26
		l52.917,42.091c4.526,3.601,11.638,3.27,15.81-0.732L213.38,41.82c4.171-4.002,10.887-3.891,14.92,0.254l24.74,25.404
		c4.036,4.139,3.931,10.809-0.236,14.814L116.078,213.814c-4.166,4.008-11.336,4.417-15.932,0.911L3.873,141.291
		c-4.595-3.507-5.188-9.883-1.313-14.179L27.364,99.627z" clip-rule="evenodd"/><path fill="#2C2C2C" fill-rule="evenodd" d="M252.804,77.914L116.078,209.437
			c-4.166,4.008-11.336,4.417-15.932,0.91L3.873,136.912c-1.903-1.452-3.107-3.397-3.604-5.483
			c-0.854,3.563,0.395,7.413,3.604,9.862l96.273,73.435c4.596,3.506,11.766,3.097,15.932-0.911L252.804,82.292
			c2.69-2.586,3.679-6.283,2.959-9.692C255.342,74.562,254.355,76.423,252.804,77.914z" clip-rule="evenodd" opacity=".2"/></svg>